ffmpeg version 4.2.7-0ubuntu0.1 Copyright (c) 2000-2022 the FFmpeg developers
  built with gcc 9 (Ubuntu 9.4.0-1ubuntu1~20.04.1)
  configuration: --prefix=/usr --extra-version=0ubuntu0.1 --toolchain=hardened --libdir=/usr/lib/x86_64-linux-gnu --incdir=/usr/include/x86_64-linux-gnu --arch=amd64 --enable-gpl --disable-stripping --enable-avresample --disable-filter=resample --enable-avisynth --enable-gnutls --enable-ladspa --enable-libaom --enable-libass --enable-libbluray --enable-libbs2b --enable-libcaca --enable-libcdio --enable-libcodec2 --enable-libflite --enable-libfontconfig --enable-libfreetype --enable-libfribidi --enable-libgme --enable-libgsm --enable-libjack --enable-libmp3lame --enable-libmysofa --enable-libopenjpeg --enable-libopenmpt --enable-libopus --enable-libpulse --enable-librsvg --enable-librubberband --enable-libshine --enable-libsnappy --enable-libsoxr --enable-libspeex --enable-libssh --enable-libtheora --enable-libtwolame --enable-libvidstab --enable-libvorbis --enable-libvpx --enable-libwavpack --enable-libwebp --enable-libx265 --enable-libxml2 --enable-libxvid --enable-libzmq --enable-libzvbi --enable-lv2 --enable-omx --enable-openal --enable-opencl --enable-opengl --enable-sdl2 --enable-libdc1394 --enable-libdrm --enable-libiec61883 --enable-nvenc --enable-chromaprint --enable-frei0r --enable-libx264 --enable-shared
  libavutil      56. 31.100 / 56. 31.100
  libavcodec     58. 54.100 / 58. 54.100
  libavformat    58. 29.100 / 58. 29.100
  libavdevice    58.  8.100 / 58.  8.100
  libavfilter     7. 57.100 /  7. 57.100
  libavresample   4.  0.  0 /  4.  0.  0
  libswscale      5.  5.100 /  5.  5.100
  libswresample   3.  5.100 /  3.  5.100
  libpostproc    55.  5.100 / 55.  5.100
[rawvideo @ 0x5593bc7fc780] Estimating duration from bitrate, this may be inaccurate
Input #0, rawvideo, from 'output.yuv':
  Duration: 00:00:04.80, start: 0.000000, bitrate: 2488320 kb/s
    Stream #0:0: Video: rawvideo (I420 / 0x30323449), yuv420p, 3840x2160, 2488320 kb/s, 25 tbr, 25 tbn, 25 tbc
Stream mapping:
  Stream #0:0 -> #0:0 (rawvideo (native) -> h264 (libx264))
Press [q] to stop, [?] for help
[libx264 @ 0x5593bc801d80] using cpu capabilities: MMX2 SSE2Fast SSSE3 SSE4.2 AVX
[libx264 @ 0x5593bc801d80] profile High, level 5.1
Output #0, h264, to 'output_h264.264':
  Metadata:
    encoder         : Lavf58.29.100
    Stream #0:0: Video: h264 (libx264), yuv420p, 3840x2160, q=-1--1, 30 fps, 30 tbn, 30 tbc
    Metadata:
      encoder         : Lavc58.54.100 libx264
    Side data:
      cpb: bitrate max/min/avg: 0/0/0 buffer size: 0 vbv_delay: -1
frame=   24 fps=0.0 q=0.0 size=       0kB time=00:00:00.00 bitrate=N/A speed=   0x    frame=   47 fps= 13 q=0.0 size=       0kB time=00:00:00.00 bitrate=N/A speed=   0x    frame=   48 fps=6.3 q=0.0 size=       0kB time=00:00:00.00 bitrate=N/A speed=   0x    frame=   52 fps=5.7 q=0.0 size=       0kB time=00:00:00.00 bitrate=N/A speed=   0x    frame=   60 fps=6.2 q=29.0 size=    1024kB time=00:00:00.06 bitrate=125828.5kbits/s speed=0.00694x    frame=   61 fps=3.9 q=29.0 size=    1024kB time=00:00:00.10 bitrate=83886.1kbits/s speed=0.0064x    frame=   69 fps=4.3 q=29.0 size=    3584kB time=00:00:00.36 bitrate=80073.0kbits/s speed=0.0226x    frame=   74 fps=3.2 q=29.0 size=    4096kB time=00:00:00.53 bitrate=62914.6kbits/s speed=0.0228x    frame=   81 fps=3.4 q=29.0 size=    4608kB time=00:00:00.76 bitrate=49237.5kbits/s speed=0.0321x    frame=   85 fps=3.5 q=29.0 size=    4864kB time=00:00:00.90 bitrate=44273.2kbits/s speed=0.0368x    frame=   86 fps=3.0 q=29.0 size=    4864kB time=00:00:00.93 bitrate=42692.0kbits/s speed=0.0325x    frame=   91 fps=3.1 q=29.0 size=    5120kB time=00:00:01.10 bitrate=38130.0kbits/s speed=0.0376x    frame=   95 fps=3.2 q=29.0 size=    5376kB time=00:00:01.23 bitrate=35708.3kbits/s speed=0.0413x    frame=   98 fps=3.2 q=29.0 size=    5632kB time=00:00:01.33 bitrate=34603.0kbits/s speed=0.0433x    frame=  103 fps=3.3 q=29.0 size=    6144kB time=00:00:01.50 bitrate=33554.4kbits/s speed=0.0479x    frame=  109 fps=3.4 q=29.0 size=    6656kB time=00:00:01.70 bitrate=32074.1kbits/s speed=0.0534x    frame=  110 fps=3.3 q=29.0 size=    6656kB time=00:00:01.73 bitrate=31457.3kbits/s speed=0.0515x    frame=  119 fps=3.5 q=29.0 size=    7168kB time=00:00:02.03 bitrate=28878.8kbits/s speed=0.0593x    frame=  120 fps=2.7 q=-1.0 Lsize=   10166kB time=00:00:03.93 bitrate=21173.9kbits/s speed=0.0885x    
video:10166kB audio:0kB subtitle:0kB other streams:0kB global headers:0kB muxing overhead: 0.000000%
[libx264 @ 0x5593bc801d80] frame I:2     Avg QP:23.13  size:1506626
[libx264 @ 0x5593bc801d80] frame P:30    Avg QP:24.30  size:209347
[libx264 @ 0x5593bc801d80] frame B:88    Avg QP:29.58  size: 12691
[libx264 @ 0x5593bc801d80] consecutive B-frames:  1.7%  1.7%  0.0% 96.7%
[libx264 @ 0x5593bc801d80] mb I  I16..4:  4.3% 87.3%  8.4%
[libx264 @ 0x5593bc801d80] mb P  I16..4:  0.1%  0.3%  0.1%  P16..4: 48.6% 17.3% 20.1%  0.0%  0.0%    skip:13.5%
[libx264 @ 0x5593bc801d80] mb B  I16..4:  0.0%  0.0%  0.0%  B16..8: 31.8%  0.2%  0.0%  direct: 0.2%  skip:67.8%  L0:55.1% L1:39.7% BI: 5.1%
[libx264 @ 0x5593bc801d80] 8x8 transform intra:85.9% inter:71.1%
[libx264 @ 0x5593bc801d80] coded y,uvDC,uvAC intra: 89.4% 92.3% 84.8% inter: 13.7% 23.2% 3.7%
[libx264 @ 0x5593bc801d80] i16 v,h,dc,p: 46% 33%  9% 12%
[libx264 @ 0x5593bc801d80] i8 v,h,dc,ddl,ddr,vr,hd,vl,hu: 16% 13% 13%  6% 10% 11%  9% 10% 11%
[libx264 @ 0x5593bc801d80] i4 v,h,dc,ddl,ddr,vr,hd,vl,hu: 17% 11%  9%  8% 14% 13% 10% 10%  9%
[libx264 @ 0x5593bc801d80] i8c dc,h,v,p: 56% 16% 16% 12%
[libx264 @ 0x5593bc801d80] Weighted P-Frames: Y:0.0% UV:0.0%
[libx264 @ 0x5593bc801d80] ref P L0: 32.7%  8.0% 48.3% 11.0%
[libx264 @ 0x5593bc801d80] ref B L0: 51.3% 40.5%  8.1%
[libx264 @ 0x5593bc801d80] ref B L1: 83.9% 16.1%
[libx264 @ 0x5593bc801d80] kb/s:20820.98
